# xmcd
#
# Track frame offsets:
#	150
#	15404
#	27645
#	44622
#	60141
#	72517
#	89007
#	102683
#	117961
#	130168
#	144777
#	159195
#	177011
#	192160
#	205240
#
# Disc length: 2924 seconds
#
# Revision: 1
# Processed by: cddbd v1.5.2PL0 Copyright (c) Steve Scherf et al.
# Submitted via: audiograbber 1.83.01
#
DISCID=cc0b6a0f
DTITLE=Atkinson Family - Tearin' Up the Line
DYEAR=2004
DGENRE=Bluegrass
TTITLE0=Marbletown
TTITLE1=Hazel
TTITLE2=Shady Grove
TTITLE3=Rest My Weary Feet
TTITLE4=My Burdens are Heavy
TTITLE5=In the Pines
TTITLE6=Free and Esy Blues
TTITLE7=Mama Put Down That Picture
TTITLE8=Photograph
TTITLE9=Grandmother
TTITLE10=Rovin' Gambler
TTITLE11=Still He Said He Didn't Love Her
TTITLE12=Long, Long Road
TTITLE13=Tearin' Up the Line
TTITLE14=Raven's Flight
EXTD=
EXTT0=
EXTT1=
EXTT2=
EXTT3=
EXTT4=
EXTT5=
EXTT6=
EXTT7=
EXTT8=
EXTT9=
EXTT10=
EXTT11=
EXTT12=
EXTT13=
EXTT14=
PLAYORDER=
